<svg height="454pt" viewBox="0 -19 454.41437 454" width="454pt" xmlns="http://www.w3.org/2000/svg"><path d="m302.820312 280.085938 63.085938-102.078126 27.222656 16.820313-63.085937 102.082031zm0 0" fill="#428dc5"/><path d="m61.285156 194.824219 27.222656-16.824219 63.085938 102.078125-27.222656 16.824219zm0 0" fill="#b6534f"/><path d="m95.589844 272.207031h256v144h-256zm0 0" fill="#1f6c8c"/><path d="m95.589844 272.207031v144h-80v-64c0-44.183593 35.816406-80 80-80zm0 0" fill="#176177"/><path d="m351.589844 272.207031c44.183594 0 80 35.816407 80 80v64h-80zm0 0" fill="#176177"/><path d="m236.039062 352.207031-44.449218-80h-40l57.777344 104zm0 0" fill="#b9b9b9"/><path d="m359.097656 173.792969 40.832032 25.234375c7.515624 4.644531 9.84375 14.507812 5.199218 22.023437-4.648437 7.515625-14.507812 9.84375-22.023437 5.199219l-40.832031-25.234375c-7.515626-4.648437-9.84375-14.507813-5.199219-22.023437 4.644531-7.515626 14.503906-9.84375 22.023437-5.199219zm0 0" fill="#cdcdcd"/><path d="m393.125 194.824219-27.199219-16.800781 58.878907-95.273438c4.648437-7.515625 14.507812-9.84375 22.023437-5.199219 7.515625 4.648438 9.84375 14.507813 5.195313 22.023438zm0 0" fill="#9c9c9c"/><g fill="#cdcdcd"><path d="m443.589844 113.160156-27.199219-16.800781 8.414063-13.601563c4.648437-7.515624 14.507812-9.84375 22.023437-5.199218 7.515625 4.648437 9.84375 14.507812 5.195313 22.023437zm0 0"/><path d="m407.738281 119.214844 15.574219-3.671875 3.671875 15.582031-15.570313 3.671875zm0 0"/><path d="m396.359375 137.640625 15.574219-3.671875 3.671875 15.582031-15.574219 3.667969zm0 0"/><path d="m383.746094 158.042969 15.570312-3.667969 3.675782 15.582031-15.574219 3.667969zm0 0"/></g><path d="m112.039062 200.964844-40.847656 25.246094c-7.519531 4.648437-17.382812 2.320312-22.03125-5.199219-4.648437-7.519531-2.320312-17.382813 5.199219-22.03125l40.847656-25.25c7.519531-4.644531 17.386719-2.316407 22.03125 5.203125 4.648438 7.519531 2.320313 17.382812-5.199219 22.03125zm0 0" fill="#f7ba61"/><path d="m61.285156 194.824219 27.199219-16.800781-58.863281-95.296876c-4.644532-7.523437-14.511719-9.851562-22.03125-5.199218-7.5195315 4.644531-9.847656 14.507812-5.199219 22.023437zm0 0" fill="#cdcdcd"/><path d="m10.789062 113.160156 27.199219-16.800781-8.40625-13.601563c-4.632812-7.507812-14.472656-9.851562-21.992187-5.230468-7.5195315 4.644531-9.847656 14.507812-5.199219 22.023437zm0 0" fill="#f7ba61"/><path d="m27.417969 131.117188 3.675781-15.578126 15.570312 3.671876-3.671874 15.578124zm0 0" fill="#9c9c9c"/><path d="m38.808594 149.542969 3.671875-15.582031 15.582031 3.671874-3.671875 15.582032zm0 0" fill="#9c9c9c"/><path d="m51.414062 169.960938 3.671876-15.582032 15.582031 3.671875-3.671875 15.582031zm0 0" fill="#9c9c9c"/><path d="m215.589844 416.207031h-40l80-144h40zm0 0" fill="#cdcdcd"/><path d="m255.589844 272.207031-32 24-32-24v-56h64zm0 0" fill="#176177"/><path d="m191.589844 272.207031 32 56 32-56zm0 0" fill="#176177"/><path d="m223.589844 16.207031c48.601562 0 88 39.398438 88 88v48c0 48.601563-39.398438 88-88 88-48.601563 0-88-39.398437-88-88v-48c0-48.601562 39.398437-88 88-88zm0 0" fill="#1f6c8c"/><path d="m311.589844 152.207031h-56l-17.6875-8.847656c-9.011719-4.503906-19.613282-4.503906-28.625 0l-17.6875 8.847656h-56v-64h176zm0 0" fill="#f9d7c0"/><path d="m263.589844 136.207031c-4.417969 0-8-3.582031-8-8v-8c0-4.417969 3.582031-8 8-8 4.417968 0 8 3.582031 8 8v8c0 4.417969-3.582032 8-8 8zm0 0" fill="#533222"/><path d="m183.589844 136.207031c-4.417969 0-8-3.582031-8-8v-8c0-4.417969 3.582031-8 8-8 4.417968 0 8 3.582031 8 8v8c0 4.417969-3.582032 8-8 8zm0 0" fill="#533222"/><path d="m318.492188 88.207031h-189.804688c-5.023438 0-9.097656-4.070312-9.097656-9.097656-.011719-9.320313 4.644531-18.027344 12.398437-23.199219l11.601563-7.703125c4.617187-27.699219 28.582031-48 56.664062-48h46.671875c28.082031 0 52.046875 20.300781 56.664063 48l11.601562 7.734375c7.753906 5.171875 12.410156 13.878906 12.398438 23.203125-.015625 5.007813-4.085938 9.0625-9.097656 9.0625zm0 0" fill="#1f6c8c"/><path d="m143.589844 48.207031h40c4.417968 0 8-3.582031 8-8s-3.582032-8-8-8h-34.800782c-2.507812 5.050781-4.261718 10.441407-5.199218 16zm0 0" fill="#176177"/><path d="m231.589844 48.207031h-16c-4.417969 0-8-3.582031-8-8s3.582031-8 8-8h16c4.417968 0 8 3.582031 8 8s-3.582032 8-8 8zm0 0" fill="#176177"/><path d="m247.589844 120.207031c-3.839844.003907-7.136719-2.71875-7.863282-6.488281-.726562-3.769531 1.328126-7.523438 4.894532-8.945312l40-16c4.105468-1.636719 8.761718.359374 10.402344 4.464843 1.636718 4.105469-.359376 8.761719-4.464844 10.402344l-40 16c-.945313.378906-1.953125.570313-2.96875.566406zm0 0" fill="#8f563b"/><path d="m199.589844 120.207031c-1.015625.003907-2.023438-.1875-2.96875-.566406l-40-16c-4.105469-1.640625-6.101563-6.296875-4.464844-10.402344 1.640625-4.105469 6.296875-6.101562 10.402344-4.464843l40 16c3.566406 1.421874 5.621094 5.175781 4.894531 8.945312s-4.023437 6.492188-7.863281 6.488281zm0 0" fill="#8f563b"/></svg>