<?xml version="1.0" encoding="iso-8859-1"?>
<!-- Generator: Adobe Illustrator 22.1.0, SVG Export Plug-In . SVG Version: 6.00 Build 0)  -->
<svg xmlns="http://www.w3.org/2000/svg" xmlns:xlink="http://www.w3.org/1999/xlink" version="1.1" id="Layer_3" x="0px" y="0px" viewBox="0 0 64 64" style="enable-background:new 0 0 64 64;" xml:space="preserve" width="512" height="512">
<g>
	<g>
		<path style="fill:#E7B6A3;" d="M26,27l-2.8,2.8c0,0-2.2-1.8-2.2-1.8l-5,3l1.226,1.839C17.226,32.839,10,38,10,38    c-2.209,0-4,1.791-4,4s1.791,4,4,4s4-1.791,4-4l8-6l1,7l-5,15h9l3-9h4l3,9h9l-5-15l1-7l8,6h0c0,2.209,1.791,4,4,4s4-1.791,4-4    s-1.791-4-4-4h0c0,0-7.226-5.161-7.226-5.161L48,31l-5-3l-2.2,1.8L38,27"/>
	</g>
	<g>
		<polygon style="fill:#D1D8DB;" points="19.333,54 18,58 27,58 28.333,54   "/>
	</g>
	<g>
		<polygon style="fill:#D1D8DB;" points="44.667,54 46,58 37,58 35.667,54   "/>
	</g>
	<g>
		<path style="fill:#657B88;" d="M28,58H18c-1.105,0-2,0.895-2,2v2h12V58z"/>
	</g>
	<g>
		<path style="fill:#657B88;" d="M36,58h10c1.105,0,2,0.895,2,2v2H36V58z"/>
	</g>
	<g>
		<polygon style="fill:#D1D8DB;" points="46.774,32.839 49.94,35.1 47.103,39.828 43.778,37.333   "/>
	</g>
	<g>
		<polygon style="fill:#D1D8DB;" points="14.06,35.1 16.897,39.828 20.222,37.333 17.226,32.839   "/>
	</g>
	<g>
		<polygon style="fill:#F8D859;" points="42,36 43.778,37.333 48,31 43,28 32,37 21,28 16,31 20.222,37.333 22,36 23,43 19.333,54     28.333,54 30,49 34,49 35.667,54 44.667,54 41,43   "/>
	</g>
	<g>
		<polygon style="fill:#D1D8DB;" points="41.667,45 22.333,45 23,43 22.714,41 41.286,41 41,43   "/>
	</g>
	<g>
		<path style="fill:#B97631;" d="M40.489,24.832C40.976,24.939,41.481,25,42,25c3.866,0,7-3.134,7-7c0-2.983-1.87-5.524-4.499-6.532    C42.961,6.007,37.954,2,32,2s-10.961,4.007-12.501,9.468C16.87,12.476,15,15.017,15,18c0,3.866,3.134,7,7,7    c0.519,0,1.024-0.061,1.511-0.168"/>
	</g>
	<g>
		<path style="fill:#EFC4B0;" d="M32,8L32,8c0,2.761-2.239,5-5,5h-5v6c0,5.523,4.477,10,10,10h0c5.523,0,10-4.477,10-10v-6h-5    C34.239,13,32,10.761,32,8L32,8"/>
	</g>
	<g>
		<path d="M32,38c-0.225,0-0.449-0.075-0.633-0.226l-10.456-8.555l-3.497,2.099l3.418,5.127l-1.664,1.109l-4-6    c-0.151-0.228-0.203-0.507-0.144-0.774c0.06-0.267,0.227-0.498,0.461-0.638l5-3c0.361-0.218,0.82-0.185,1.147,0.083L32,35.708    l10.367-8.482c0.326-0.269,0.786-0.301,1.147-0.083l5,3c0.234,0.141,0.401,0.371,0.461,0.638c0.06,0.267,0.008,0.546-0.144,0.774    l-4,6l-1.664-1.109l3.418-5.127l-3.497-2.099l-10.456,8.555C32.449,37.925,32.225,38,32,38z"/>
	</g>
	<g>
		<rect x="22" y="44" width="20" height="2"/>
	</g>
	<g>
		<rect x="23" y="40" width="18" height="2"/>
	</g>
	<g>
		<path d="M32,30c-6.065,0-11-4.935-11-11v-6c0-0.552,0.447-1,1-1h5c2.206,0,4-1.794,4-4c0-0.552,0.447-1,1-1s1,0.448,1,1    c0,2.206,1.794,4,4,4h5c0.553,0,1,0.448,1,1v6C43,25.065,38.065,30,32,30z M23,14v5c0,4.962,4.037,9,9,9s9-4.038,9-9v-5h-4    c-2.085,0-3.924-1.068-5-2.687C30.924,12.932,29.085,14,27,14H23z"/>
	</g>
	<g>
		<path d="M18.948,58.316l-1.896-0.633l4.925-14.776l-0.728-5.094l-6.276,4.707C14.712,45.034,12.581,47,10,47c-2.757,0-5-2.243-5-5    c0-2.644,2.062-4.815,4.664-4.989l6.755-4.825l1.162,1.628l-7,5C10.412,38.935,10.208,39,10,39c-1.654,0-3,1.346-3,3s1.346,3,3,3    s3-1.346,3-3c0-0.315,0.148-0.611,0.4-0.8l8-6c0.283-0.213,0.657-0.259,0.982-0.124c0.326,0.135,0.558,0.433,0.607,0.782l1,7    c0.021,0.154,0.008,0.311-0.042,0.458L18.948,58.316z"/>
	</g>
	<g>
		<path d="M28,63H16c-0.553,0-1-0.448-1-1v-2c0-1.654,1.346-3,3-3h10c0.553,0,1,0.448,1,1v4C29,62.552,28.553,63,28,63z M17,61h10    v-2h-9c-0.552,0-1,0.449-1,1V61z"/>
	</g>
	<g>
		<path d="M36.052,58.316L33.279,50h-2.559l-2.772,8.316l-1.896-0.633l3-9C29.188,48.275,29.569,48,30,48h4    c0.431,0,0.812,0.275,0.948,0.684l3,9L36.052,58.316z"/>
	</g>
	<g>
		<path d="M48,63H36c-0.553,0-1-0.448-1-1v-4c0-0.552,0.447-1,1-1h10c1.654,0,3,1.346,3,3v2C49,62.552,48.553,63,48,63z M37,61h10    v-1c0-0.551-0.448-1-1-1h-9V61z"/>
	</g>
	<g>
		<rect x="14.5" y="34.585" transform="matrix(0.8575 -0.5145 0.5145 0.8575 -17.0847 13.3187)" width="2" height="5.831"/>
	</g>
	<g>
		<rect x="45.585" y="36.5" transform="matrix(0.5146 -0.8574 0.8574 0.5146 -8.6128 59.7853)" width="5.831" height="2"/>
	</g>
	<g>
		<path d="M33,26h-2c-2.206,0-4-1.794-4-4h2c0,1.103,0.897,2,2,2h2c1.103,0,2-0.897,2-2h2C37,24.206,35.206,26,33,26z"/>
	</g>
	<g>
		<path d="M28,20c-1.103,0-2-0.897-2-2s0.897-2,2-2s2,0.897,2,2S29.103,20,28,20z M28,17.999V18V17.999z"/>
	</g>
	<g>
		<path d="M36,20c-1.103,0-2-0.897-2-2s0.897-2,2-2s2,0.897,2,2S37.103,20,36,20z M36,17.999V18V17.999z"/>
	</g>
	<g>
		<path d="M42,26c-0.569,0-1.15-0.064-1.727-0.191l0.43-1.953C44.531,24.696,48,21.733,48,18c0-2.464-1.55-4.713-3.857-5.598    c-0.294-0.113-0.519-0.358-0.604-0.662C42.087,6.594,37.343,3,32,3c-5.342,0-10.088,3.594-11.539,8.74    c-0.086,0.304-0.311,0.549-0.604,0.662C17.55,13.287,16,15.536,16,18c0.001,3.733,3.47,6.699,7.297,5.855l0.43,1.953    C23.15,25.936,22.569,26,22,26c-4.411,0-8-3.589-8-8c0-3.118,1.859-5.979,4.677-7.271C20.52,4.977,25.93,1,32,1    s11.48,3.977,13.323,9.729C48.14,12.021,50,14.882,50,18C50,22.411,46.411,26,42,26z"/>
	</g>
	<g>
		<rect x="19" y="53" width="9" height="2"/>
	</g>
	<g>
		<rect x="36" y="53" width="9" height="2"/>
	</g>
	<g>
		<path d="M45.052,58.316l-5-15c-0.05-0.147-0.063-0.304-0.042-0.458l1-7c0.05-0.35,0.281-0.647,0.607-0.782    c0.325-0.134,0.699-0.088,0.982,0.124l8,6c0.252,0.188,0.4,0.485,0.4,0.8c0,1.654,1.346,3,3,3s3-1.346,3-3s-1.346-3-3-3    c-0.208,0-0.412-0.065-0.581-0.186l-7-5l1.162-1.628l6.755,4.825C56.938,37.185,59,39.356,59,42c0,2.757-2.243,5-5,5    c-2.581,0-4.712-1.966-4.973-4.48l-6.276-4.707l-0.728,5.094l4.925,14.776L45.052,58.316z"/>
	</g>
	<g>
		<rect x="22.379" y="27.5" transform="matrix(0.7071 -0.7071 0.7071 0.7071 -12.9767 25.6716)" width="4.243" height="2"/>
	</g>
	<g>
		<rect x="38.5" y="26.379" transform="matrix(0.7071 -0.7071 0.7071 0.7071 -8.5833 36.2782)" width="2" height="4.243"/>
	</g>
</g>
</svg>
