<svg height="512pt" viewBox="0 0 512 512" width="512pt" xmlns="http://www.w3.org/2000/svg"><path d="m498.71875 78.839844-321.304688 321.300781-65.570312-65.570313 321.300781-321.304687c8.550781-8.550781 19.917969-13.2578125 32.019531-13.265625 12.097657 0 23.464844 4.710938 32.023438 13.265625l1.535156 1.539063c8.550782 8.550781 13.269532 19.925781 13.269532 32.019531-.007813 12.105469-4.71875 23.472656-13.273438 32.015625zm0 0" fill="#d1dee0"/><path d="m498.71875 78.839844-321.304688 321.300781-32.78125-32.78125 353.324219-353.324219.765625.769532c8.550782 8.550781 13.269532 19.925781 13.269532 32.023437-.007813 12.101563-4.71875 23.46875-13.273438 32.011719zm0 0" fill="#b2bdc2"/><path d="m65.570312 512-32.789062-32.789062-32.78125-32.796876 133.1875-133.1875 65.570312 65.574219-.007812.003907zm0 0" fill="#ff4f19"/><path d="m65.570312 512-32.789062-32.789062 133.1875-133.1875 32.78125 32.78125zm0 0" fill="#d43200"/><path d="m77.789062 300.523438 21.34375-21.34375 133.671876 133.671874-21.34375 21.34375zm0 0" fill="#d43200"/><path d="m144.625 367.359375 21.34375-21.34375 66.835938 66.835937-21.34375 21.34375zm0 0" fill="#9f2600"/></svg>