<svg id="Layer_1" height="512" viewBox="0 0 512 512" width="512" xmlns="http://www.w3.org/2000/svg" data-name="Layer 1"><g id="_Group_" data-name=" Group "><path d="m288.97 322.54-7.2-8.28h-119.24c-26.21 0-47.46-22.28-47.46-49.75v-169.76c0-27.47 21.25-49.75 47.46-49.75h274.07c26.21 0 47.46 22.28 47.46 49.75v169.76c0 27.47-21.25 49.75-47.46 49.75h-61.64l-8.35 97.62z" fill="#00acea"/><path d="m362.05 181.04c0 24.97-15.59 46.37-37.61 56.12v12.5h-52.95v-12.74c-22.34-9.54-37.7-31.04-37.62-56.09.12-32.1 26.72-59.29 60.07-61.25 37.2-2.18 68.11 26.19 68.11 61.46z" fill="#fedb41"/><path d="m271.49 249.66h52.95v37.11h-52.95z" fill="#00efd1"/><path d="m288.97 322.54v54.04c0 15.82-12.24 28.65-27.34 28.65h-120.2l-60.12 61.77-4.03-61.77h-22.01c-15.09 0-27.33-12.83-27.33-28.65v-133.23c0-15.82 12.24-28.64 27.33-28.64h59.8v49.8c0 27.47 21.25 49.75 47.46 49.75h119.24z" fill="#00efd1"/><g fill="#fedb41"><path d="m297.96 97.78a6 6 0 0 1 -6-6v-31.48a6 6 0 0 1 12 0v31.48a6 6 0 0 1 -6 6z"/><path d="m208.33 183.9h-32.76a6 6 0 0 1 0-12h32.76a6 6 0 0 1 0 12z"/><path d="m420.35 183.9h-32.76a6 6 0 0 1 0-12h32.76a6 6 0 0 1 0 12z"/><path d="m234.8 122.96a5.975 5.975 0 0 1 -4.132-1.651l-23.319-22.16a6 6 0 1 1 8.265-8.7l23.32 22.159a6 6 0 0 1 -4.134 10.35z"/><path d="m361.121 122.96a6 6 0 0 1 -4.133-10.35l23.33-22.16a6 6 0 1 1 8.264 8.7l-23.33 22.16a5.978 5.978 0 0 1 -4.131 1.65z"/></g></g></svg>