<?xml version="1.0" encoding="utf-8"?>
<!-- Generator: Adobe Illustrator 22.1.0, SVG Export Plug-In . SVG Version: 6.00 Build 0)  -->
<svg xmlns="http://www.w3.org/2000/svg" xmlns:xlink="http://www.w3.org/1999/xlink" version="1.1" id="Layer_1" x="0px" y="0px" viewBox="0 0 512 512" style="enable-background:new 0 0 512 512;" xml:space="preserve" width="512" height="512">
<style type="text/css">
	.st0{fill:#FF624B;}
	.st1{fill:#FFC34C;}
	.st2{fill:#F9BB32;}
	.st3{fill:#DB9C2E;}
	.st4{fill:#FF4B34;}
	.st5{fill:#FF9079;}
	.st6{fill:#FCE575;}
	.st7{fill:#FFD551;}
	.st8{fill:#FFF4C1;}
	.st9{fill:#FFB74B;}
	.st10{fill:#EACF32;}
	.st11{fill:#99AF17;}
	.st12{fill:#CCC033;}
	.st13{fill:#FCDA4F;}
	.st14{fill:#FFA730;}
	.st15{fill:#FFEACF;}
	.st16{fill:#FFD59A;}
	.st17{fill:#FFDF74;}
	.st18{fill:#E58D23;}
	.st19{fill:#BF6C0D;}
	.st20{fill:#A56021;}
	.st21{fill:#8C4C17;}
	.st22{fill:#FFEA63;}
	.st23{fill:#FCF9DE;}
</style>
<g>
	<g>
		<path class="st8" d="M336.037,495.858H134.245c-22.091,0-40-17.909-40-40V56.142c0-22.091,17.909-40,40-40h201.791    c22.091,0,40,17.909,40,40v399.716C376.037,477.949,358.128,495.858,336.037,495.858z"/>
	</g>
	<g>
		<path class="st6" d="M136.935,453.168V58.832c0-23.577,19.113-42.69,42.69-42.69h-42.69c-23.577,0-42.69,19.113-42.69,42.69    v394.336c0,23.577,19.113,42.69,42.69,42.69h42.69C156.048,495.858,136.935,476.745,136.935,453.168z"/>
	</g>
	<g>
		<path class="st20" d="M336.037,16.142H134.245c-22.091,0-40,17.909-40,40v25.131h281.791V56.142    C376.037,34.051,358.128,16.142,336.037,16.142z"/>
	</g>
	<g>
		<path class="st20" d="M94.245,407.889v47.969c0,22.091,17.909,40,40,40h201.791c22.091,0,40-17.909,40-40v-47.969H94.245z"/>
	</g>
	<g>
		<circle class="st2" cx="235.141" cy="452.451" r="29.96"/>
	</g>
	<g>
		<path class="st21" d="M181.666,16.142h-47.421c-22.091,0-40,17.909-40,40v25.131h42.69v-20.4    C136.935,36.169,156.962,16.142,181.666,16.142z"/>
	</g>
	<g>
		<path class="st21" d="M136.935,451.127v-43.238h-42.69v47.969c0,22.091,17.909,40,40,40h47.421    C156.962,495.858,136.935,475.831,136.935,451.127z"/>
	</g>
	<g>
		<path class="st23" d="M352.538,396.224c-3.313,0-6-2.687-6-6V196.231c0-3.313,2.687-6,6-6s6,2.687,6,6v193.992    C358.538,393.537,355.852,396.224,352.538,396.224z"/>
	</g>
	<g>
		<path class="st14" d="M223.324,452.451c0-13.384,8.778-24.714,20.889-28.558c-2.862-0.908-5.909-1.402-9.072-1.402    c-16.547,0-29.961,13.414-29.961,29.96c0,16.547,13.414,29.96,29.961,29.96c3.163,0,6.209-0.493,9.072-1.402    C232.102,477.165,223.324,465.835,223.324,452.451z"/>
	</g>
	<g>
		<circle class="st21" cx="170.884" cy="53.182" r="16.879"/>
	</g>
	<g>
		<circle class="st6" cx="170.884" cy="378.246" r="16.879"/>
	</g>
	<g>
		<path class="st12" d="M255.252,322.623h-91.246c-5.523,0-10-4.477-10-10v-91.246c0-5.523,4.477-10,10-10h91.246    c5.523,0,10,4.477,10,10v91.246C265.252,318.146,260.774,322.623,255.252,322.623z"/>
	</g>
	<g>
		<path class="st6" d="M234.897,257.515c0-9.036,3.157-12.943,12.124-13.53c1.447-0.095,2.58-1.285,2.58-2.735l0-9.414    c0-1.56-1.301-2.796-2.86-2.741c-20.528,0.718-29.832,9.415-29.832,28.42v6.101h-7.425c-1.515,0-2.743,1.228-2.743,2.743v9.062    c0,1.515,1.228,2.743,2.743,2.743h7.425v44.46h17.989v-44.46h13.213c1.515,0,2.743-1.228,2.743-2.743v-9.062    c0-1.515-1.228-2.743-2.743-2.743h-13.213V257.515z"/>
	</g>
	<g>
		<path class="st0" d="M400.51,191.082H298.199c-5.523,0-10-4.477-10-10v-66.117c0-5.523,4.477-10,10-10H400.51    c5.523,0,10,4.477,10,10v66.117C410.51,186.604,406.033,191.082,400.51,191.082z"/>
	</g>
	<g>
		<path class="st5" d="M326.454,120.955v54.137c0,4.178,4.535,6.778,8.14,4.667l46.244-27.068c3.568-2.089,3.568-7.246,0-9.335    l-46.244-27.068C330.989,114.177,326.454,116.777,326.454,120.955z"/>
	</g>
	<g>
		<path class="st5" d="M382.755,377.702h-40.883c-19.33,0-35-15.67-35-35v-40.883c0-19.33,15.67-35,35-35h40.883    c19.33,0,35,15.67,35,35v40.883C417.755,362.031,402.085,377.702,382.755,377.702z"/>
	</g>
	<g>
		<path class="st16" d="M361.313,363.199c-19.587,0-35.521-15.935-35.521-35.521s15.935-35.521,35.521-35.521    s35.521,15.935,35.521,35.521S380.9,363.199,361.313,363.199z M361.313,300.156c-15.176,0-27.521,12.346-27.521,27.521    s12.346,27.521,27.521,27.521s27.521-12.346,27.521-27.521S376.489,300.156,361.313,300.156z"/>
	</g>
	<g>
		<path class="st16" d="M395.271,295.958c-5.259,0-9.537-4.278-9.537-9.537c0-5.259,4.278-9.538,9.537-9.538    s9.537,4.278,9.537,9.538C404.809,291.68,400.53,295.958,395.271,295.958z M395.271,281.883c-2.502,0-4.537,2.036-4.537,4.538    s2.035,4.537,4.537,4.537s4.537-2.035,4.537-4.537S397.773,281.883,395.271,281.883z"/>
	</g>
</g>
</svg>
